<svg xmlns="http://www.w3.org/2000/svg" fill="none" viewBox="0 -6 18 18" class="sc-fzqyvX sc-pJkiN coOCwZ"><path fill="#1773EB" d="M16.583 5.913l-.168-.87H14.54l-.298.864-1.504.003c.716-1.783 1.433-3.566 2.152-5.349.123-.302.34-.456.66-.454.245.002.644.002 1.198 0l1.163 5.804-1.327.002zm-1.621-2.06h1.209l-.452-2.181-.758 2.18zM5.268.105L6.78.107 4.443 5.914l-1.53-.001a757.098 757.098 0 01-1.14-4.606c-.075-.306-.223-.52-.507-.621C.846.54.424.4 0 .266V.109h2.416c.418 0 .662.21.74.64l.597 3.289L5.269.106zm3.589.001L7.662 5.913 6.224 5.91 7.418.106l1.44.001zM11.776 0c.43 0 .973.14 1.285.267l-.252 1.204c-.282-.118-.747-.276-1.137-.271-.567.01-.918.257-.918.493 0 .385.61.58 1.236 1 .716.48.81.91.8 1.378-.009.971-.8 1.929-2.469 1.929-.76-.012-1.035-.078-1.656-.306l.262-1.257c.632.275.9.362 1.44.362.495 0 .92-.207.924-.568.003-.257-.15-.384-.705-.701-.555-.318-1.334-.758-1.324-1.641C9.275.759 10.31 0 11.776 0z"></path></svg>