<svg xmlns="http://www.w3.org/2000/svg" viewBox="0 0 24 24" fill="#72768f" class="css-1hydu6d"><path fill-rule="evenodd" clip-rule="evenodd" d="M22 12c0-5.523-4.477-10-10-10S2 6.477 2 12s4.477 10 10 10 10-4.477 10-10zm-2 0a8 8 0 10-16 0 8 8 0 0016 0z" fill="#72768f"></path><path d="M12.506 18.5h1.659v-1.538c1.387-.076 2.428-1.312 2.428-2.835 0-1.554-.935-2.248-2.308-2.323v-.09c1.312-.166 1.93-.755 1.93-2.127 0-1.357-.753-2.292-2.05-2.503V5.5h-1.66v1.538h-1.01V5.5H9.836v1.538H8.328v9.924h1.508V18.5h1.66v-1.538h1.01V18.5zm-2.021-9.637h2.579c.573 0 .92.302.92.875v.498c0 .573-.347.874-.92.874h-2.58V8.863zm0 3.997h2.94c.574 0 .936.316.936.89v.497c0 .573-.362.89-.935.89h-2.941V12.86z" fill="#72768f"></path></svg>