<svg viewBox="0 0 16 16" fill="none" xmlns="http://www.w3.org/2000/svg"><path fill-rule="evenodd" clip-rule="evenodd" d="M16 8.28c0 3.453-2.042 6.412-4.944 7.655-.753.23-1.466-.171-1.466-.877 0-.08 0-.22.002-.408.002-.379.006-.95.006-1.605 0-.684-.221-1.13-.47-1.358 1.539-.182 3.156-.803 3.156-3.62 0-.8-.268-1.455-.71-1.97.072-.184.309-.93-.068-1.94 0 0-.58-.197-1.899.752a6.266 6.266 0 00-1.732-.247 6.246 6.246 0 00-1.73.247c-1.321-.95-1.902-.752-1.902-.752-.374 1.01-.138 1.756-.066 1.94-.442.515-.712 1.17-.712 1.97 0 2.81 1.614 3.439 3.149 3.625-.197.183-.377.508-.439.981-.393.187-1.394.512-2.01-.61 0 0-.367-.703-1.06-.755 0 0-.675-.01-.048.446 0 0 .453.226.767 1.074 0 0 .406 1.308 2.33.865.001.356.004.7.006.96v.003l.003.402c-.009.595-.486 1.07-1.184.891C2.059 14.716 0 11.747 0 8.28 0 3.707 3.582 0 8 0s8 3.707 8 8.28z" fill="currentColor"></path></svg>