<svg xmlns="http://www.w3.org/2000/svg" fill="none" viewBox="0 -2.5 13 13" class="sc-fzooss sc-pReKu EDTUM"><path fill="#EA001B" d="M.006 4c0 1.06.419 2.078 1.165 2.828a3.97 3.97 0 005.629 0 4.01 4.01 0 000-5.656 3.97 3.97 0 00-5.629 0A4.01 4.01 0 00.006 4z"></path><path fill="#F79F1A" d="M5.04 4a4.017 4.017 0 001.166 2.828A3.979 3.979 0 009.02 8a3.963 3.963 0 002.814-1.172A4.003 4.003 0 0013 4a4.018 4.018 0 00-1.166-2.828A3.979 3.979 0 009.02 0a3.963 3.963 0 00-2.814 1.172A4.001 4.001 0 005.04 4z"></path><path fill="#FF5F01" d="M5.047 4.008a4 4 0 001.454 3.09 4 4 0 001.472-3.105A4 4 0 006.52.902a3.999 3.999 0 00-1.472 3.106z"></path></svg>