<svg viewBox="0 0 16 16" fill="none" xmlns="http://www.w3.org/2000/svg"><path fill-rule="evenodd" clip-rule="evenodd" d="M16 1.96C16 .88 15.121 0 14.04 0H1.96C.88 0 0 .879 0 1.96v12.08C0 15.12.879 16 1.96 16h12.08c1.081 0 1.96-.879 1.96-1.96V1.96zM8.86 8c0 2.107-1.696 3.816-3.789 3.816S1.281 10.107 1.281 8c0-2.107 1.697-3.816 3.79-3.816S8.861 5.893 8.861 8zm4.158 0c0 1.984-.848 3.592-1.895 3.592-1.046 0-1.895-1.608-1.895-3.592s.849-3.592 1.895-3.592c1.047 0 1.895 1.608 1.895 3.592zm1.7 0c0 1.777-.298 3.218-.666 3.218-.368 0-.666-1.44-.666-3.218 0-1.777.298-3.218.666-3.218.368 0 .667 1.44.667 3.218z" fill="currentColor"></path></svg>