<svg xmlns="http://www.w3.org/2000/svg" fill="#fff" viewBox="0 0 24 24" class="css-1hmjvxk"><path fill-rule="evenodd" d="M12 9a3 3 0 100 6 3 3 0 000-6zm-1 3a1 1 0 112 0 1 1 0 01-2 0z" clip-rule="evenodd"></path><path fill-rule="evenodd" d="M13.232 22a2 2 0 001.898-1.367l.395-1.187a1.012 1.012 0 011.162-.67l1.228.25a2 2 0 002.132-.96l1.232-2.132a2 2 0 00-.236-2.327l-.821-.926a1.027 1.027 0 010-1.362l.82-.926a2 2 0 00.237-2.327l-1.232-2.133a2 2 0 00-2.132-.96l-1.228.252a1.011 1.011 0 01-1.162-.671l-.396-1.187A2 2 0 0013.232 2h-2.464A2 2 0 008.87 3.367l-.396 1.187a1.012 1.012 0 01-1.162.67l-1.228-.25a2 2 0 00-2.132.96L2.72 8.065a2 2 0 00.236 2.327l.821.926a1.027 1.027 0 010 1.362l-.82.926a2 2 0 00-.237 2.327l1.232 2.133a2 2 0 002.132.96l1.228-.252a1.011 1.011 0 011.162.671l.396 1.187A2 2 0 0010.768 22h2.464zm.396-3.186L13.232 20h-2.464l-.396-1.187a3.012 3.012 0 00-3.46-1.997l-1.227.25-1.232-2.132.821-.925a3.026 3.026 0 000-4.018l-.82-.925 1.23-2.133 1.229.251a3.012 3.012 0 003.46-1.997L10.767 4h2.464l.396 1.187a3.011 3.011 0 003.46 1.997l1.227-.25 1.232 2.132-.821.925a3.026 3.026 0 000 4.018l.82.925-1.23 2.133-1.229-.251a3.012 3.012 0 00-3.459 1.998z" clip-rule="evenodd"></path></svg>