<svg viewBox="0 0 16 15" fill="none" xmlns="http://www.w3.org/2000/svg"><path fill-rule="evenodd" clip-rule="evenodd" d="M12.256 13.962c.215.16.491.2.738.102a.807.807 0 00.483-.593c.579-2.883 1.984-10.18 2.512-12.802a.57.57 0 00-.174-.535.51.51 0 00-.531-.099C12.489 1.131 3.88 4.551.362 5.93A.584.584 0 000 6.494a.58.58 0 00.396.539c1.578.5 3.649 1.195 3.649 1.195s.968 3.095 1.472 4.67a.6.6 0 00.402.406.555.555 0 00.541-.146l2.064-2.063s2.381 1.848 3.732 2.867zm-7.34-6.125l1.12 3.909.248-2.476 6.79-6.484a.204.204 0 00.022-.266.183.183 0 00-.25-.045l-7.93 5.362z" fill="currentColor"></path></svg>