<svg viewBox="0 0 16 13" fill="none" xmlns="http://www.w3.org/2000/svg"><path fill-rule="evenodd" clip-rule="evenodd" d="M14.115 1.988A3.196 3.196 0 0015.558.232a6.707 6.707 0 01-2.085.77A3.325 3.325 0 0011.077 0C9.265 0 7.796 1.42 7.796 3.173c0 .249.027.491.083.723A9.428 9.428 0 011.114.58 3.086 3.086 0 00.67 2.176c0 1.1.579 2.072 1.46 2.642a3.38 3.38 0 01-1.488-.396v.039c0 1.538 1.131 2.82 2.635 3.111a3.315 3.315 0 01-.866.112c-.212 0-.418-.02-.617-.056.417 1.26 1.63 2.179 3.066 2.203A6.73 6.73 0 01.783 11.19 6.77 6.77 0 010 11.146a9.53 9.53 0 005.032 1.425c6.038 0 9.339-4.835 9.339-9.03a8.57 8.57 0 00-.009-.41A6.53 6.53 0 0016 1.489a6.73 6.73 0 01-1.885.5z" fill="currentColor"></path></svg>